# AST/ASF file generated using VICON BodyLanguage
# -----------------------------------------------
:version 1.10
:name VICON
:units
  mass 1.0
  length 0.45
  angle deg
:documentation
   .ast/.asf automatically generated from VICON data using
   VICON BodyBuilder and BodyLanguage model FoxedUp or BRILLIANT.MOD
:root
   order TX TY TZ RX RY RZ
   axis XYZ
   position 0 0 0  
   orientation 0 0 0 
:bonedata
  begin
     id 1 
     name lhipjoint
     direction 0.62366 -0.717238 0.310833 
     length 2.53602 
     axis 0 0 0  XYZ
  end
  begin
     id 2 
     name lfemur
     direction 0.34202 -0.939693 0  
     length 7.40817  
     axis 0 0 20  XYZ
    dof rx ry rz
    limits (-160.0 20.0)
           (-70.0 70.0)
           (-60.0 70.0)
  end
  begin
     id 3 
     name ltibia
     direction 0.34202 -0.939693 0   
     length 7.7045   
     axis 0 0 20   XYZ
    dof rx
    limits (-10.0 170.0)
  end
  begin
     id 4 
     name lfoot
     direction 0.0673888 -0.185149 0.980397   
     length 2.09456   
     axis -90 7.62852e-016 20   XYZ
    dof rx rz
    limits (-45.0 90.0)
           (-70.0 20.0)
  end
  begin
     id 5 
     name ltoes
     direction 1.53575e-011 -4.21994e-011 1   
     length 1.05543   
     axis -90 7.62852e-016 20   XYZ
    dof rx
    limits (-90.0 20.0)
  end
  begin
     id 6 
     name rhipjoint
     direction -0.489018 -0.800347 0.346851   
     length 2.27268  
     axis 0 0 0  XYZ 
  end
  begin
     id 7 
     name rfemur
     direction -0.34202 -0.939693 0   
     length 7.55487   
     axis 0 0 -20   XYZ
    dof rx ry rz
    limits (-160.0 20.0)
           (-70.0 70.0)
           (-70.0 60.0)
  end
  begin
     id 8 
     name rtibia
     direction -0.34202 -0.939693 0   
     length 7.78969   
     axis 0 0 -20   XYZ
    dof rx
    limits (-10.0 170.0)
 end
 begin
     id 9 
     name rfoot
     direction -0.0859318 -0.236096 0.967923   
     length 2.19143  
     axis -90 -7.62852e-016 -20   XYZ
    dof rx rz
    limits (-45.0 90.0)
           (-20.0 70.0)
  end
  begin
     id 10 
     name rtoes
     direction -1.53538e-011 -4.21989e-011 1   
     length 1.09845   
     axis -90 -7.62852e-016 -20   XYZ
    dof rx
    limits (-90.0 20.0)
  end
  begin
     id 11 
     name lowerback
     direction -0.00762546 0.998978 -0.0445553   
     length 1.98161   
     axis 0 0 0   XYZ
    dof rx ry rz
    limits (-20.0 45.0)
           (-30.0 30.0)
           (-30.0 30.0)
  end
  begin
     id 12 
     name upperback
     direction 0.0422361 0.998867 -0.0219156   
     length 1.97558   
     axis 0 0 0   XYZ
    dof rx ry rz
    limits (-20.0 45.0)
           (-30.0 30.0)
           (-30.0 30.0)
  end
  begin
     id 13 
     name thorax
     direction 0.0442465 0.999021 7.47603e-005   
     length 1.97799   
     axis 0 0 0   XYZ
    dof rx ry rz
    limits (-20.0 45.0)
           (-30.0 30.0)
           (-30.0 30.0)
  end
  begin
     id 14 
     name lowerneck
     direction 0.00312169 0.984641 0.174564   
     length 1.78995   
     axis 0 0 0   XYZ
    dof rx ry rz
    limits (-20.0 45.0)
           (-30.0 30.0)
           (-30.0 30.0)
  end
  begin
     id 15 
     name upperneck
     direction -0.0383028 0.985255 -0.166749   
     length 1.83053   
     axis 0 0 0   XYZ
    dof rx ry rz
    limits (-20.0 45.0)
           (-30.0 30.0)
           (-30.0 30.0)
  end
  begin
     id 16
     name head
     direction -0.0129546 0.997059 -0.0755386  
     length 1.84088  
     axis 0 0 0   XYZ
    dof rx ry rz
    limits (-20.0 45.0)
           (-30.0 30.0)
           (-30.0 30.0)
  end
  begin
     id 17 
     name lclavicle
     direction 0.912857 0.370519 -0.171488  
     length 3.51279  
     axis 0 0 0   XYZ
    dof ry rz
    limits (-20.0 10.0)
           (0.0 20.0)
  end
  begin
     id 18 
     name lhumerus
     direction 1 -4.48962e-011 3.64361e-027   
     length 4.95663   
     axis 180 -30 -90   XYZ
    dof rx ry rz
    limits (-60.0 90.0)
           (-90.0 90.0)
           (-90.0 90.0)
  end
  begin
     id 19
     name lradius
     direction 1 -4.48974e-011 5.97202e-027   
     length 3.38177   
     axis 180 -30 -90   XYZ
    dof rx
    limits (-10.0 170.0)
  end
  begin
     id 20
     name lwrist
     direction 1 -4.4896e-011 9.83288e-027   
     length 1.69088   
     axis -9.31221e-015 90 90   XYZ
    dof ry
    limits (-180.0 0.0)
 end
  begin
     id 21 
     name lhand
     direction 1 -4.4902e-011 1.96551e-026   
     length 0.662909   
     axis -1.25475e-014 90 90   XYZ
    dof rx rz
    limits (-90.0 90.0)
           (-45.0 45.0)
  end
  begin
     id 22 
     name lfingers
     direction 1 -4.48971e-011 3.93277e-026   
     length 0.534454   
     axis -2.50945e-014 90 90   XYZ
    dof rx
    limits (0.0 90.0)
  end
  begin
     id 23
     name lthumb
     direction 0.707107 -6.34933e-011 0.707107   
     length 0.767373   
     axis -90 45 -4.80359e-014   XYZ
    dof rx rz
    limits (-45.0 45.0)
           (-45.0 45.0)
  end
  begin
     id 24 
     name rclavicle
     direction -0.900919 0.395364 -0.178976   
     length 3.40627  
     axis 0 0 0   XYZ 
    dof ry rz
    limits (-10.0 20.0)
           (-20.0 0.0)
  end
  begin
     id 25 
     name rhumerus
     direction -1 -4.48969e-011 1.03875e-027  
     length 5.08365   
     axis 180 30 90   XYZ
    dof rx ry rz
    limits (-90.0 60.0)
           (-90.0 90.0)
           (-90.0 90.0)
  end
  begin
     id 26 
     name rradius
     direction -1 -4.48951e-011 5.02733e-027   
     length 3.35984   
     axis 180 30 90   XYZ
    dof rx
    limits (-10.0 170.0)
  end
  begin
     id 27 
     name rwrist
     direction -1 -4.49011e-011 9.82828e-027   
     length 1.67992   
     axis -9.31221e-015 -90 -90   XYZ
    dof ry
    limits (-180.0 0.0)
  end
  begin
     id 28
     name rhand
     direction -1 -4.48894e-011 1.96774e-026   
     length 0.820764   
     axis -1.25475e-014 -90 -90   XYZ
    dof rx rz
    limits (-90.0 90.0)
           (-45.0 45.0)
  end
  begin
     id 29
     name rfingers
     direction -1 -4.49095e-011 3.92833e-026   
     length 0.661721   
     axis -2.50945e-014 -90 -90   XYZ
    dof rx
    limits (0.0 90.0)
  end
  begin
     id 30
     name rthumb
     direction -0.707107 -6.34881e-011 0.707107   
     length 0.950103   
     axis -90 -45 4.80359e-014   XYZ
    dof rx rz
    limits (-45.0 45.0)
           (-45.0 45.0)
  end
:hierarchy
  begin
    root lhipjoint rhipjoint lowerback
    lhipjoint lfemur
    lfemur ltibia
    ltibia lfoot
    lfoot ltoes
    rhipjoint rfemur
    rfemur rtibia
    rtibia rfoot
    rfoot rtoes
    lowerback upperback
    upperback thorax
    thorax lowerneck lclavicle rclavicle
    lowerneck upperneck
    upperneck head
    lclavicle lhumerus
    lhumerus lradius
    lradius lwrist
    lwrist lhand lthumb
    lhand lfingers
    rclavicle rhumerus
    rhumerus rradius
    rradius rwrist
    rwrist rhand rthumb
    rhand rfingers
  end

#!OML:ASF I:\golf\golf\golf 2\Subject 1\2002-09-07\Subject1.ASF
:FULLY-SPECIFIED
:DEGREES
77
root -8.1295 17.5988 -0.289973 -116.675 86.3768 -132.112
lowerback 4.9044 2.17003 -1.22964
upperback 3.68845 2.98971 4.75034
thorax 0.740372 1.49341 5.47818
lowerneck -15.1944 -2.39231 1.23544
upperneck 37.7861 -0.291491 -5.03435
head 15.9483 -0.108283 -2.302
rclavicle 1.07344e-014 4.77083e-015
rhumerus -4.22708 1.35474 -101.259
rradius 23.8809
rwrist -45.2081
rhand -20.0143 -9.77881
rfingers 7.12502
rthumb 6.32603 -39.6643
lclavicle 1.07344e-014 4.77083e-015
lhumerus -7.0761 -40.1995 109.125
lradius 24.855
lwrist 41.4862
lhand -14.7478 70.1552
lfingers 7.12502
lthumb -168.592 80.1751
rfemur -30.9217 -2.63316 10.3722
rtibia 32.2918
rfoot -10.4497 -9.08151
rtoes -4.93008
lfemur -33.2056 5.52258 -8.83195
ltibia 33.8801
lfoot -12.8762 -5.75757
ltoes -19.0875
78
root -8.12884 17.599 -0.290753 -117.02 86.3995 -132.434
lowerback 4.9099 2.18856 -1.30847
upperback 3.69872 3.01248 4.78488
thorax 0.740154 1.50354 5.55834
lowerneck -15.1684 -2.37784 1.22737
upperneck 37.7784 -0.2465 -5.07835
head 15.9405 -0.0954628 -2.31088
rclavicle 1.35174e-014 2.46493e-014
rhumerus -4.21583 1.14501 -101.239
rradius 23.8639
rwrist -45.1389
rhand -20.1873 -9.70144
rfingers 7.12502
rthumb 6.159 -39.5919
lclavicle 1.35174e-014 2.46493e-014
lhumerus -7.0493 -40.3416 109.124
lradius 24.8935
lwrist 41.6304
lhand -15.1385 70.3145
lfingers 7.12502
lthumb -168.969 79.9954
rfemur -30.8778 -2.5905 10.3144
rtibia 32.2787
rfoot -10.5322 -9.06003
rtoes -4.5729
lfemur -33.1678 5.54102 -8.86973
ltibia 33.8671
lfoot -12.8954 -5.7792
ltoes -19.2704
79
root -8.1282 17.5991 -0.291784 -117.257 86.3625 -132.682
lowerback 4.88524 2.20989 -1.26653
upperback 3.6936 3.04203 4.77549
thorax 0.747903 1.51897 5.5239
lowerneck -15.1376 -2.37384 1.27425
upperneck 37.7488 -0.256661 -5.08098
head 15.9166 -0.0931829 -2.32048
rclavicle 1.51076e-014 4.77083e-014
rhumerus -4.29214 1.23498 -101.234
rradius 24.0233
rwrist -45.3523
rhand -20.4764 -9.68976
rfingers 7.12502
rthumb 5.87985 -39.5882
lclavicle 1.51076e-014 4.77083e-014
lhumerus -7.08316 -40.6564 109.095
lradius 24.9799
lwrist 41.9455
lhand -15.8936 70.4419
lfingers 7.12502
lthumb -169.697 79.8305
rfemur -30.8635 -2.593 10.3315
rtibia 32.2619
rfoot -10.5285 -9.10871
rtoes -4.99087
lfemur -33.188 5.53381 -8.84711
ltibia 33.8575
lfoot -12.7672 -5.87063
ltoes -18.5991
80
root -8.12735 17.5989 -0.292034 -117.462 86.3098 -132.854
lowerback 4.90565 2.2078 -1.20552
upperback 3.70014 3.04174 4.76253
thorax 0.746888 1.52002 5.47487
lowerneck -15.069 -2.3626 1.30055
upperneck 37.6573 -0.263189 -5.07034
head 15.8526 -0.0926221 -2.31756
rclavicle 2.14687e-014 2.46493e-014
rhumerus -4.40987 1.3483 -101.252
rradius 24.2261
rwrist -45.5351
rhand -20.6593 -9.73316
rfingers 7.12502
rthumb 5.70329 -39.6364
lclavicle 2.14687e-014 2.46493e-014
lhumerus -7.06807 -40.682 109.032
lradius 24.9476
lwrist 41.4297
lhand -15.475 70.1858
lfingers 7.12502
lthumb -169.293 80.107
rfemur -30.813 -2.62494 10.3844
rtibia 32.2454
rfoot -10.3612 -9.24363
rtoes -6.78736
lfemur -33.1625 5.55096 -8.8192
ltibia 33.8506
lfoot -12.7704 -5.91239
ltoes -18.6118
81
root -8.1263 17.5997 -0.29205 -117.996 86.2891 -133.348
lowerback 4.93101 2.16893 -1.2954
upperback 3.71331 2.98896 4.8283
thorax 0.744505 1.49227 5.59743
lowerneck -15.0156 -2.32643 1.22845
upperneck 37.5787 -0.179538 -5.1056
head 15.8054 -0.0744887 -2.30221
rclavicle 3.57812e-014 4.29375e-014
rhumerus -4.52255 1.5479 -101.225
rradius 24.3592
rwrist -45.6462
rhand -20.6787 -9.73096
rfingers 7.12502
rthumb 5.68455 -39.6347
lclavicle 3.57812e-014 4.29375e-014
lhumerus -6.95007 -40.2716 109.038
lradius 24.7879
lwrist 40.5993
lhand -14.9541 69.8241
lfingers 7.12502
lthumb -168.791 80.4954
rfemur -30.7433 -2.60775 10.3606
rtibia 32.2346
rfoot -10.2644 -9.26734
rtoes -8.13791
lfemur -33.1192 5.52287 -8.82183
ltibia 33.8454
lfoot -12.8386 -5.89914
ltoes -18.728
82
root -8.12517 17.6003 -0.292894 -118.74 86.2894 -134.097
lowerback 4.92543 2.15269 -1.39618
upperback 3.70754 2.96485 4.87787
thorax 0.737186 1.47869 5.70848
lowerneck -15.0402 -2.31174 1.14961
upperneck 37.6029 -0.122091 -5.11823
head 15.8279 -0.0626727 -2.28482
rclavicle -4.37326e-015 -1.98785e-014
rhumerus -4.5771 1.65641 -101.208
rradius 24.3964
rwrist -45.6582
rhand -20.5772 -9.68725
rfingers 7.12502
rthumb 5.78252 -39.5884
lclavicle -4.37326e-015 -1.98785e-014
lhumerus -6.88011 -39.9867 109.072
lradius 24.6488
lwrist 40.2434
lhand -14.8462 69.8069
lfingers 7.12502
lthumb -168.687 80.5182
rfemur -30.7142 -2.57422 10.2895
rtibia 32.2374
rfoot -10.3657 -9.19637
rtoes -7.16626
lfemur -33.1194 5.43934 -8.83929
ltibia 33.8348
lfoot -12.8486 -5.88811
ltoes -18.494
83
root -8.12408 17.5995 -0.293932 -119.218 86.2741 -134.583
lowerback 4.92628 2.17509 -1.37321
upperback 3.69154 2.99524 4.86219
thorax 0.718637 1.49472 5.6767
lowerneck -15.058 -2.32048 1.12074
upperneck 37.6548 -0.140729 -5.05737
head 15.858 -0.0641679 -2.25812
rclavicle -2.46493e-014 0
rhumerus -4.51713 1.05196 -101.218
rradius 24.216
rwrist -44.6972
rhand -19.6151 -9.77298
rfingers 7.12502
rthumb 6.71135 -39.6466
lclavicle -2.46493e-014 0
lhumerus -6.92411 -40.0466 109.085
lradius 24.614
lwrist 40.0999
lhand -14.6726 69.8642
lfingers 7.12502
lthumb -168.519 80.4702
rfemur -30.7162 -2.64701 10.3069
rtibia 32.2472
rfoot -10.4423 -9.20767
rtoes -5.96541
lfemur -33.1337 5.40602 -8.85034
ltibia 33.8225
lfoot -12.8927 -5.84772
ltoes -19.0258
84
root -8.12335 17.5993 -0.294819 -119.7 86.2616 -135.069
lowerback 4.92165 2.20946 -1.33674
upperback 3.68411 3.04147 4.82957
thorax 0.711833 1.5186 5.61903
lowerneck -15.0401 -2.33729 1.15045
upperneck 37.6587 -0.192315 -5.00896
head 15.8524 -0.0737132 -2.25087
rclavicle 2.82274e-014 -2.06736e-014
rhumerus -4.29193 -0.581933 -101.193
rradius 23.5789
rwrist -41.6657
rhand -16.9915 -9.80156
rfingers 7.12502
rthumb 9.24351 -39.5789
lclavicle 2.82274e-014 -2.06736e-014
lhumerus -6.98006 -40.1774 109.078
lradius 24.5619
lwrist 40.0718
lhand -14.7272 69.7844
lfingers 7.12502
lthumb -168.572 80.547
rfemur -30.7299 -2.73734 10.3302
rtibia 32.2599
rfoot -10.3838 -9.25176
rtoes -6.76909
lfemur -33.1519 5.40363 -8.86993
ltibia 33.8141
lfoot -12.8658 -5.87279
ltoes -19.1164
85
root -8.12263 17.5998 -0.29603 -119.904 86.2251 -135.261
lowerback 4.93549 2.22076 -1.31933
upperback 3.68209 3.05808 4.84331
thorax 0.700406 1.52764 5.62204
lowerneck -14.9978 -2.34592 1.16415
upperneck 37.6233 -0.19815 -5.04301
head 15.8236 -0.0785486 -2.26702
rclavicle 2.50469e-014 1.90833e-014
rhumerus -4.45624 0.12469 -101.259
rradius 24.0845
rwrist -43.8381
rhand -18.9105 -9.69286
rfingers 7.12502
rthumb 7.39158 -39.5437
lclavicle 2.50469e-014 1.90833e-014
lhumerus -6.96397 -40.1474 109.045
lradius 24.4366
lwrist 39.6776
lhand -15.0376 69.8386
lfingers 7.12502
lthumb -168.871 80.4765
rfemur -30.7146 -2.75969 10.3549
rtibia 32.2721
rfoot -10.3146 -9.27668
rtoes -7.76482
lfemur -33.1434 5.39394 -8.85083
ltibia 33.8121
lfoot -12.8257 -5.92205
ltoes -18.9097
86
root -8.12163 17.5999 -0.297577 -120.483 86.1745 -135.827
lowerback 4.94019 2.20082 -1.32478
upperback 3.67853 3.03278 4.87982
thorax 0.694756 1.51524 5.66467
lowerneck -14.9653 -2.33889 1.12928
upperneck 37.5915 -0.16464 -5.07652
head 15.8019 -0.0740676 -2.26785
rclavicle -2.3059e-014 -1.90833e-014
rhumerus -4.40138 -0.322258 -101.202
rradius 23.7532
rwrist -42.4376
rhand -17.9734 -9.64383
rfingers 7.12502
rthumb 8.29597 -39.4609
lclavicle -2.3059e-014 -1.90833e-014
lhumerus -6.8972 -39.9674 109.018
lradius 24.2667
lwrist 38.7934
lhand -14.8835 69.7333
lfingers 7.12502
lthumb -168.723 80.5898
rfemur -30.6786 -2.82819 10.3838
rtibia 32.2696
rfoot -10.2949 -9.35018
rtoes -8.18639
lfemur -33.1411 5.36652 -8.8402
ltibia 33.8129
lfoot -12.846 -5.94207
ltoes -19.0582
87
root -8.12114 17.5991 -0.299518 -121.56 86.1573 -136.923
lowerback 4.89401 2.19131 -1.35503
upperback 3.68662 3.01838 4.88573
thorax 0.7287 1.50676 5.69114
lowerneck -14.9645 -2.33961 1.09677
upperneck 37.5576 -0.174073 -5.04094
head 15.7845 -0.0789147 -2.24726
rclavicle 1.23246e-014 4.77083e-015
rhumerus -4.44486 -0.197524 -101.23
rradius 23.833
rwrist -42.6951
rhand -18.4302 -9.62538
rfingers 7.12502
rthumb 7.85511 -39.4595
lclavicle 1.23246e-014 4.77083e-015
lhumerus -6.79722 -39.8782 108.987
lradius 24.0808
lwrist 38.0993
lhand -14.4855 69.6042
lfingers 7.12502
lthumb -168.339 80.7403
rfemur -30.6752 -2.94603 10.3652
rtibia 32.255
rfoot -10.28 -9.40225
rtoes -8.58256
lfemur -33.1779 5.31171 -8.87558
ltibia 33.8081
lfoot -12.7932 -6.00902
ltoes -18.5607
88
root -8.12063 17.598 -0.300346 -121.91 86.1525 -137.293
lowerback 4.85604 2.20984 -1.35059
upperback 3.70491 3.04255 4.88159
thorax 0.766571 1.51813 5.68518
lowerneck -15.0147 -2.3631 1.04547
upperneck 37.5596 -0.215022 -4.98851
head 15.7964 -0.0971194 -2.22347
rclavicle -1.55052e-014 -2.06736e-014
rhumerus -4.42313 -0.465867 -101.298
rradius 23.8654
rwrist -42.614
rhand -18.1706 -9.74722
rfingers 7.12502
rthumb 8.10564 -39.5718
lclavicle -1.55052e-014 -2.06736e-014
lhumerus -6.7322 -40.0647 108.947
lradius 23.9291
lwrist 37.766
lhand -13.8732 69.2763
lfingers 7.12502
lthumb -167.749 81.1026
rfemur -30.6902 -2.97016 10.3528
rtibia 32.2464
rfoot -10.2502 -9.39989
rtoes -8.29517
lfemur -33.1968 5.26973 -8.8798
ltibia 33.7929
lfoot -12.7409 -6.0381
ltoes -18.1415
